{
    "asset" : {
        "generator" : "Khronos glTF Blender I/O v1.8.19",
        "version" : "2.0"
    },
    "scene" : 0,
    "scenes" : [
        {
            "name" : "Scene",
            "nodes" : [
                0,
                1,
                2,
                3
            ]
        }
    ],
    "nodes" : [
        {
            "mesh" : 0,
            "name" : "ceiling",
            "scale" : [
                6,
                6,
                6
            ]
        },
        {
            "mesh" : 1,
            "name" : "walls",
            "scale" : [
                10.53666877746582,
                10.53666877746582,
                10.53666877746582
            ]
        },
        {
            "mesh" : 2,
            "name" : "innerwalls",
            "scale" : [
                6,
                6,
                6
            ]
        },
        {
            "mesh" : 3,
            "name" : "windows",
            "scale" : [
                10.53666877746582,
                10.53666877746582,
                10.53666877746582
            ]
        }
    ],
    "materials" : [
        {
            "doubleSided" : true,
            "name" : "whitewall",
            "normalTexture" : {
                "index" : 0
            },
            "pbrMetallicRoughness" : {
                "baseColorTexture" : {
                    "index" : 1
                },
                "metallicFactor" : 0,
                "roughnessFactor" : 0.5
            }
        },
        {
            "doubleSided" : true,
            "name" : "mainmat",
            "normalTexture" : {
                "index" : 2
            },
            "pbrMetallicRoughness" : {
                "baseColorTexture" : {
                    "index" : 3
                },
                "metallicFactor" : 0,
                "metallicRoughnessTexture" : {
                    "index" : 4
                }
            }
        },
        {
            "alphaMode" : "BLEND",
            "doubleSided" : true,
            "name" : "windowmat",
            "pbrMetallicRoughness" : {
                "baseColorTexture" : {
                    "index" : 5
                },
                "metallicFactor" : 0,
                "roughnessFactor" : 0.5
            }
        },
        {
            "doubleSided" : true,
            "name" : "floormat",
            "normalTexture" : {
                "index" : 6
            },
            "pbrMetallicRoughness" : {
                "baseColorTexture" : {
                    "index" : 7
                },
                "metallicFactor" : 0,
                "roughnessFactor" : 0.5
            }
        }
    ],
    "meshes" : [
        {
            "name" : "Cube.001",
            "primitives" : [
                {
                    "attributes" : {
                        "POSITION" : 0,
                        "NORMAL" : 1,
                        "TEXCOORD_0" : 2
                    },
                    "indices" : 3,
                    "material" : 0
                }
            ]
        },
        {
            "name" : "Cube",
            "primitives" : [
                {
                    "attributes" : {
                        "POSITION" : 4,
                        "NORMAL" : 5,
                        "TEXCOORD_0" : 6
                    },
                    "indices" : 7,
                    "material" : 1
                },
                {
                    "attributes" : {
                        "POSITION" : 8,
                        "NORMAL" : 9,
                        "TEXCOORD_0" : 10
                    },
                    "indices" : 11,
                    "material" : 2
                },
                {
                    "attributes" : {
                        "POSITION" : 12,
                        "NORMAL" : 13,
                        "TEXCOORD_0" : 14
                    },
                    "indices" : 15,
                    "material" : 3
                }
            ]
        },
        {
            "name" : "Cube.002",
            "primitives" : [
                {
                    "attributes" : {
                        "POSITION" : 16,
                        "NORMAL" : 17,
                        "TEXCOORD_0" : 18
                    },
                    "indices" : 19,
                    "material" : 1
                },
                {
                    "attributes" : {
                        "POSITION" : 20,
                        "NORMAL" : 21,
                        "TEXCOORD_0" : 22
                    },
                    "indices" : 23,
                    "material" : 0
                }
            ]
        },
        {
            "name" : "Cube.003",
            "primitives" : [
                {
                    "attributes" : {
                        "POSITION" : 24,
                        "NORMAL" : 25,
                        "TEXCOORD_0" : 26
                    },
                    "indices" : 27,
                    "material" : 2
                }
            ]
        }
    ],
    "textures" : [
        {
            "sampler" : 0,
            "source" : 0
        },
        {
            "sampler" : 0,
            "source" : 0
        },
        {
            "sampler" : 0,
            "source" : 1
        },
        {
            "sampler" : 0,
            "source" : 2
        },
        {
            "sampler" : 0,
            "source" : 3
        },
        {
            "sampler" : 0,
            "source" : 4
        },
        {
            "sampler" : 0,
            "source" : 5
        },
        {
            "sampler" : 0,
            "source" : 5
        }
    ],
    "images" : [
        {
            "mimeType" : "image/jpeg",
            "name" : "ceilingtexture",
            "uri" : "ceilingtexture.jpg"
        },
        {
            "mimeType" : "image/jpeg",
            "name" : "Bricks023_1K_NormalGL",
            "uri" : "Bricks023_1K_NormalGL.jpg"
        },
        {
            "mimeType" : "image/jpeg",
            "name" : "Bricks023_1K_Color",
            "uri" : "Bricks023_1K_Color.jpg"
        },
        {
            "mimeType" : "image/png",
            "name" : "Bricks023_1K_Roughness",
            "uri" : "Bricks023_1K_Roughness.png"
        },
        {
            "mimeType" : "image/png",
            "name" : "windowtexture",
            "uri" : "windowtexture.png"
        },
        {
            "mimeType" : "image/jpeg",
            "name" : "PavingStones064_1K_Color",
            "uri" : "PavingStones064_1K_Color.jpg"
        }
    ],
    "accessors" : [
        {
            "bufferView" : 0,
            "componentType" : 5126,
            "count" : 68,
            "max" : [
                1.7764337062835693,
                1.3333332538604736,
                1.7764337062835693
            ],
            "min" : [
                -1.7764337062835693,
                1.3333332538604736,
                -1.7764337062835693
            ],
            "type" : "VEC3"
        },
        {
            "bufferView" : 1,
            "componentType" : 5126,
            "count" : 68,
            "type" : "VEC3"
        },
        {
            "bufferView" : 2,
            "componentType" : 5126,
            "count" : 68,
            "type" : "VEC2"
        },
        {
            "bufferView" : 3,
            "componentType" : 5123,
            "count" : 138,
            "type" : "SCALAR"
        },
        {
            "bufferView" : 4,
            "componentType" : 5126,
            "count" : 132,
            "max" : [
                1,
                0.7638933062553406,
                1
            ],
            "min" : [
                -1,
                0,
                -1
            ],
            "type" : "VEC3"
        },
        {
            "bufferView" : 5,
            "componentType" : 5126,
            "count" : 132,
            "type" : "VEC3"
        },
        {
            "bufferView" : 6,
            "componentType" : 5126,
            "count" : 132,
            "type" : "VEC2"
        },
        {
            "bufferView" : 7,
            "componentType" : 5123,
            "count" : 480,
            "type" : "SCALAR"
        },
        {
            "bufferView" : 8,
            "componentType" : 5126,
            "count" : 96,
            "max" : [
                1,
                0.7181560397148132,
                1
            ],
            "min" : [
                -1,
                0.616042971611023,
                -1
            ],
            "type" : "VEC3"
        },
        {
            "bufferView" : 9,
            "componentType" : 5126,
            "count" : 96,
            "type" : "VEC3"
        },
        {
            "bufferView" : 10,
            "componentType" : 5126,
            "count" : 96,
            "type" : "VEC2"
        },
        {
            "bufferView" : 11,
            "componentType" : 5123,
            "count" : 288,
            "type" : "SCALAR"
        },
        {
            "bufferView" : 12,
            "componentType" : 5126,
            "count" : 32,
            "max" : [
                1,
                0,
                1
            ],
            "min" : [
                -1,
                0,
                -1
            ],
            "type" : "VEC3"
        },
        {
            "bufferView" : 13,
            "componentType" : 5126,
            "count" : 32,
            "type" : "VEC3"
        },
        {
            "bufferView" : 14,
            "componentType" : 5126,
            "count" : 32,
            "type" : "VEC2"
        },
        {
            "bufferView" : 15,
            "componentType" : 5123,
            "count" : 90,
            "type" : "SCALAR"
        },
        {
            "bufferView" : 16,
            "componentType" : 5126,
            "count" : 156,
            "max" : [
                0.3626706004142761,
                1.3333332538604736,
                0.3626706004142761
            ],
            "min" : [
                -0.3626706004142761,
                -1.1920928955078125e-07,
                -0.3626706004142761
            ],
            "type" : "VEC3"
        },
        {
            "bufferView" : 17,
            "componentType" : 5126,
            "count" : 156,
            "type" : "VEC3"
        },
        {
            "bufferView" : 18,
            "componentType" : 5126,
            "count" : 156,
            "type" : "VEC2"
        },
        {
            "bufferView" : 19,
            "componentType" : 5123,
            "count" : 480,
            "type" : "SCALAR"
        },
        {
            "bufferView" : 20,
            "componentType" : 5126,
            "count" : 72,
            "max" : [
                0.3626706004142761,
                0.6059426665306091,
                0.3626706004142761
            ],
            "min" : [
                -0.3626706004142761,
                -1.1920928955078125e-07,
                -0.3626706004142761
            ],
            "type" : "VEC3"
        },
        {
            "bufferView" : 21,
            "componentType" : 5126,
            "count" : 72,
            "type" : "VEC3"
        },
        {
            "bufferView" : 22,
            "componentType" : 5126,
            "count" : 72,
            "type" : "VEC2"
        },
        {
            "bufferView" : 23,
            "componentType" : 5123,
            "count" : 192,
            "type" : "SCALAR"
        },
        {
            "bufferView" : 24,
            "componentType" : 5126,
            "count" : 240,
            "max" : [
                0.9999287724494934,
                0.7095147967338562,
                0.9999287724494934
            ],
            "min" : [
                -0.9999287724494934,
                0.62468421459198,
                -0.9999287724494934
            ],
            "type" : "VEC3"
        },
        {
            "bufferView" : 25,
            "componentType" : 5126,
            "count" : 240,
            "type" : "VEC3"
        },
        {
            "bufferView" : 26,
            "componentType" : 5126,
            "count" : 240,
            "type" : "VEC2"
        },
        {
            "bufferView" : 27,
            "componentType" : 5123,
            "count" : 384,
            "type" : "SCALAR"
        }
    ],
    "bufferViews" : [
        {
            "buffer" : 0,
            "byteLength" : 816,
            "byteOffset" : 0
        },
        {
            "buffer" : 0,
            "byteLength" : 816,
            "byteOffset" : 816
        },
        {
            "buffer" : 0,
            "byteLength" : 544,
            "byteOffset" : 1632
        },
        {
            "buffer" : 0,
            "byteLength" : 276,
            "byteOffset" : 2176
        },
        {
            "buffer" : 0,
            "byteLength" : 1584,
            "byteOffset" : 2452
        },
        {
            "buffer" : 0,
            "byteLength" : 1584,
            "byteOffset" : 4036
        },
        {
            "buffer" : 0,
            "byteLength" : 1056,
            "byteOffset" : 5620
        },
        {
            "buffer" : 0,
            "byteLength" : 960,
            "byteOffset" : 6676
        },
        {
            "buffer" : 0,
            "byteLength" : 1152,
            "byteOffset" : 7636
        },
        {
            "buffer" : 0,
            "byteLength" : 1152,
            "byteOffset" : 8788
        },
        {
            "buffer" : 0,
            "byteLength" : 768,
            "byteOffset" : 9940
        },
        {
            "buffer" : 0,
            "byteLength" : 576,
            "byteOffset" : 10708
        },
        {
            "buffer" : 0,
            "byteLength" : 384,
            "byteOffset" : 11284
        },
        {
            "buffer" : 0,
            "byteLength" : 384,
            "byteOffset" : 11668
        },
        {
            "buffer" : 0,
            "byteLength" : 256,
            "byteOffset" : 12052
        },
        {
            "buffer" : 0,
            "byteLength" : 180,
            "byteOffset" : 12308
        },
        {
            "buffer" : 0,
            "byteLength" : 1872,
            "byteOffset" : 12488
        },
        {
            "buffer" : 0,
            "byteLength" : 1872,
            "byteOffset" : 14360
        },
        {
            "buffer" : 0,
            "byteLength" : 1248,
            "byteOffset" : 16232
        },
        {
            "buffer" : 0,
            "byteLength" : 960,
            "byteOffset" : 17480
        },
        {
            "buffer" : 0,
            "byteLength" : 864,
            "byteOffset" : 18440
        },
        {
            "buffer" : 0,
            "byteLength" : 864,
            "byteOffset" : 19304
        },
        {
            "buffer" : 0,
            "byteLength" : 576,
            "byteOffset" : 20168
        },
        {
            "buffer" : 0,
            "byteLength" : 384,
            "byteOffset" : 20744
        },
        {
            "buffer" : 0,
            "byteLength" : 2880,
            "byteOffset" : 21128
        },
        {
            "buffer" : 0,
            "byteLength" : 2880,
            "byteOffset" : 24008
        },
        {
            "buffer" : 0,
            "byteLength" : 1920,
            "byteOffset" : 26888
        },
        {
            "buffer" : 0,
            "byteLength" : 768,
            "byteOffset" : 28808
        }
    ],
    "samplers" : [
        {
            "magFilter" : 9729,
            "minFilter" : 9987
        }
    ],
    "buffers" : [
        {
            "byteLength" : 29576,
            "uri" : "room.bin"
        }
    ]
}
